<svg height="512" viewBox="0 0 64 64" width="512" xmlns="http://www.w3.org/2000/svg"><g id="outline"><path d="m46.242 54.03-7.242-1.81v-15.22a1.752 1.752 0 0 0 -.02-.2l-1.98-9.9v-17.9a1.006 1.006 0 0 0 -.168-.555l-4-6a1.039 1.039 0 0 0 -1.664 0l-4 6a1.006 1.006 0 0 0 -.168.555v17.9l-1.98 9.9a1.752 1.752 0 0 0 -.02.2v15.22l-7.242 1.81a1 1 0 0 0 -.758.97v4a1 1 0 0 0 .758.97l8 2a1 1 0 0 0 .242.03h12a1 1 0 0 0 .242-.03l8-2a1 1 0 0 0 .758-.97v-4a1 1 0 0 0 -.758-.97zm-21.242 5.689-6-1.5v-2.438l6-1.5zm4-50.419 3-4.5 3 4.5v6.7h-6zm0 8.7h6v2h-6zm0 4h6v4h-6zm-.181 6h6.362l1.6 8h-1.781v-2a.984.984 0 0 0 -.03-.242l-1-4-1.94.484.97 3.881v1.877h-2v-1.877l.97-3.881-1.94-.484-1 4a.984.984 0 0 0 -.03.242v2h-1.78zm8.181 28h-4v2h4v2h-10v-2h4v-2h-4v-2h10zm0-4h-10v-10h10zm0-12h-10v-2h10zm8 18.219-6 1.5v-5.438l6 1.5z"/><path d="m30 50h4a1 1 0 0 0 1-1v-4a1 1 0 0 0 -1-1h-4a1 1 0 0 0 -1 1v4a1 1 0 0 0 1 1zm1-4h2v2h-2z"/><path d="m31 8h2v2h-2z"/><path d="m31 12h2v2h-2z"/></g></svg>